<svg width="200" height="206" viewBox="0 0 200 206" fill="none" xmlns="http://www.w3.org/2000/svg">
<rect width="200" height="200" fill="#FFCD00"/>
<path d="M55.1651 11.24L79.6451 76.328H79.9331L104.557 11.24H133.069V22.904L128.317 23.336C125.437 23.624 124.045 25.304 124.141 28.376L127.741 94.328L136.669 94.76V107H101.965V95.336L107.149 94.904C109.741 94.712 110.989 93.464 110.893 91.16L108.157 40.328H107.869L85.6931 97.784H72.0131L50.1251 40.904H49.8371L46.9571 94.328L56.3171 94.76V107H22.3331V95.336L27.5171 94.904C29.7251 94.712 30.9251 93.416 31.1171 91.016L35.0051 24.056L26.2211 23.48V11.24H55.1651Z" fill="black"/>
<path d="M95.1651 97.24L119.645 162.328H119.933L144.557 97.24H173.069V108.904L168.317 109.336C165.437 109.624 164.045 111.304 164.141 114.376L167.741 180.328L176.669 180.76V193H141.965V181.336L147.149 180.904C149.741 180.712 150.989 179.464 150.893 177.16L148.157 126.328H147.869L125.693 183.784H112.013L90.1251 126.904H89.8371L86.9571 180.328L96.3171 180.76V193H62.3331V181.336L67.5171 180.904C69.7251 180.712 70.9251 179.416 71.1171 177.016L75.0051 110.056L66.2211 109.48V97.24H95.1651Z" fill="black"/>
</svg>
